<svg width="450" height="368" viewBox="0 0 450 368" fill="none" xmlns="http://www.w3.org/2000/svg">
<g clip-path="url(#clip0_49_2)">
<mask id="mask0_49_2" style="mask-type:luminance" maskUnits="userSpaceOnUse" x="0" y="0" width="450" height="368">
<path d="M450 0H0V368H450V0Z" fill="white"/>
</mask>
<g mask="url(#mask0_49_2)">
<path d="M31.5482 72.6373C8.28681 85.1885 -6.20181 103.619 2.8481 128.428C11.1817 151.273 31.5482 149.213 31.5482 149.213C31.5482 149.213 18.9233 162.626 22.5657 180.937C26.4959 200.695 58.4956 196.034 58.4956 196.034C58.4956 196.034 62.2279 210.015 68.5736 216.818C83.4711 232.789 113.267 216.818 113.267 216.818C113.267 216.818 115.768 234.134 133.203 246.573C161.361 266.662 205.94 255.249 205.94 255.249C205.94 255.249 223.807 278.516 244.718 278.516C264.655 278.516 280.648 246.573 280.648 246.573C280.648 246.573 313.077 257.543 329.284 255.249C351.868 252.053 361.629 242.96 375.292 226.883C387.232 212.832 395.01 184 395.01 184C395.01 184 449.781 188.038 449.781 161.246C449.781 134.455 428.968 128.428 428.968 128.428C428.968 128.428 439.738 104.822 428.968 92.5472C416.677 78.5369 391.066 83.5765 391.066 83.5765C391.066 83.5765 383.363 54.3716 375.292 44.8514C347.468 12.0333 315.482 38.7254 315.482 38.7254C315.482 38.7254 317.116 18.8878 293.574 5.03211C269.397 -9.19711 237.707 19.9096 237.707 19.9096C237.707 19.9096 237.707 -1.76833e-05 205.94 0C174.172 1.76834e-05 167.161 19.9096 167.161 19.9096C167.161 19.9096 140.712 1.5685 125.317 5.03211C85.4428 14.0024 79.5278 52.7277 79.5278 52.7277C79.5278 52.7277 55.6917 59.6103 31.5482 72.6373Z" fill="#CCE3FF"/>
<path d="M182.278 139.012H171.352C165.491 139.012 162.561 137.818 162.561 135.429C162.561 134.427 163.072 133.305 164.094 132.065C164.935 131.117 165.783 130.16 166.641 129.194C169.581 125.001 174.063 118.765 180.087 110.487C181.512 108.591 183.365 107.644 185.647 107.644C186.724 107.644 187.655 107.916 188.44 108.464C189.372 109.12 189.837 110.041 189.837 111.226L189.864 131.792C192.256 131.865 193.854 132.111 194.656 132.53C195.551 133.023 195.998 133.989 195.998 135.429C196.017 136.942 195.323 137.981 193.917 138.547C192.931 138.93 191.58 139.085 189.864 139.012C189.919 141.638 189.91 144.482 189.837 147.545C189.818 148.547 189.49 149.377 188.851 150.034C188.212 150.69 187.345 151.018 186.249 151.018C183.474 151.018 182.15 149.195 182.278 145.548V139.012ZM182.278 119.513C180.507 122.302 177.778 126.395 174.09 131.792H182.278V119.513Z" fill="black"/>
<path d="M224.524 151.373C218.481 151.373 214.099 148.766 211.378 143.551C209.37 139.686 208.366 134.7 208.366 128.592C208.366 123.378 209.69 118.801 212.337 114.863C215.513 110.141 219.859 107.78 225.372 107.78C230.594 107.78 234.647 109.886 237.532 114.097C239.96 117.653 241.174 121.947 241.174 126.979C241.174 135.11 239.786 141.209 237.012 145.275C234.236 149.341 230.073 151.373 224.524 151.373ZM225.345 114.89C222.387 114.89 220.014 116.359 218.224 119.294C216.654 121.846 215.869 124.808 215.869 128.182C215.869 132.63 216.29 136.058 217.129 138.465C218.481 142.348 220.945 144.29 224.524 144.29C227.517 144.29 229.763 142.932 231.261 140.215C232.757 137.48 233.506 133.387 233.506 127.936C233.506 123.579 232.822 120.315 231.452 118.145C230.101 115.975 228.065 114.89 225.345 114.89Z" fill="black"/>
<path d="M273.177 139.012H262.25C256.389 139.012 253.459 137.818 253.459 135.429C253.459 134.427 253.97 133.305 254.992 132.065C255.833 131.117 256.681 130.16 257.539 129.194C260.479 125.001 264.961 118.765 270.986 110.487C272.41 108.591 274.263 107.644 276.546 107.644C277.622 107.644 278.553 107.916 279.339 108.464C280.27 109.12 280.735 110.041 280.735 111.226L280.763 131.792C283.154 131.865 284.752 132.111 285.555 132.53C286.45 133.023 286.897 133.989 286.897 135.429C286.915 136.942 286.221 137.981 284.816 138.547C283.83 138.93 282.478 139.085 280.763 139.012C280.817 141.638 280.808 144.482 280.735 147.545C280.717 148.547 280.388 149.377 279.75 150.034C279.111 150.69 278.243 151.018 277.148 151.018C274.373 151.018 273.049 149.195 273.177 145.548V139.012ZM273.177 119.513C271.406 122.302 268.676 126.395 264.988 131.792H273.177V119.513Z" fill="black"/>
<path d="M192.124 80.6774C189.942 80.6774 188.157 80.1584 186.77 79.1187C185.236 77.9703 184.469 76.3519 184.469 74.2647C184.469 71.9584 185.076 70.0073 186.29 68.412C187.642 66.6433 189.463 65.7589 191.754 65.7589C193.343 65.7589 194.661 66.0145 195.711 66.5245C197.09 67.1994 197.779 68.2482 197.779 69.6701C197.779 70.6726 197.218 71.5615 196.095 72.336C195.584 72.6918 194.556 73.2114 193.013 73.8954L188.4 75.9325C188.837 76.4072 189.367 76.7623 189.988 76.9993C190.608 77.2363 191.32 77.3544 192.124 77.3544C193.346 77.3544 194.383 77.104 195.232 76.6024C195.99 76.156 196.597 75.9325 197.053 75.9325C198.002 75.9325 198.477 76.393 198.477 77.314C198.477 78.3531 197.715 79.2009 196.19 79.8572C194.912 80.4044 193.557 80.6774 192.124 80.6774ZM191.754 69.0683C190.906 69.0683 190.179 69.3509 189.577 69.9161C188.974 70.4813 188.49 71.329 188.126 72.4593C189.157 72.013 190.184 71.5705 191.206 71.1331C192.439 70.577 193.42 70.0619 194.15 69.5879C193.539 69.2417 192.74 69.0683 191.754 69.0683Z" fill="black"/>
<path d="M215.193 70.1898C215.111 71.5847 214.476 72.2822 213.29 72.2822C212.14 72.2822 211.565 71.6894 211.565 70.5045L211.496 69.123C209.442 69.4512 207.973 70.5045 207.087 72.2822L207.101 79.1599C207.101 79.6794 206.923 80.1078 206.567 80.4456C206.211 80.7918 205.759 80.9646 205.212 80.9646C204.645 80.9646 204.207 80.7828 203.897 80.418C203.604 80.0898 203.458 79.6705 203.458 79.1599V70.2033C203.458 69.9207 203.467 69.5013 203.486 68.9451C203.504 68.38 203.514 67.9561 203.514 67.6735C203.514 67.1636 203.664 66.7391 203.965 66.4019C204.276 66.0551 204.713 65.8823 205.28 65.8823C206.293 65.8823 206.895 66.4019 207.087 67.441C208.703 66.2381 210.497 65.6364 212.468 65.6364C214.295 65.6364 215.207 66.8489 215.207 69.2733C215.207 69.7383 215.203 70.044 215.193 70.1898Z" fill="black"/>
<path d="M231.471 70.1898C231.389 71.5847 230.754 72.2822 229.568 72.2822C228.417 72.2822 227.843 71.6894 227.843 70.5045L227.774 69.123C225.721 69.4512 224.25 70.5045 223.365 72.2822L223.379 79.1599C223.379 79.6794 223.201 80.1078 222.844 80.4456C222.489 80.7918 222.037 80.9646 221.489 80.9646C220.923 80.9646 220.485 80.7828 220.175 80.418C219.883 80.0898 219.737 79.6705 219.737 79.1599V70.2033C219.737 69.9207 219.745 69.5013 219.764 68.9451C219.782 68.38 219.791 67.9561 219.791 67.6735C219.791 67.1636 219.942 66.7391 220.243 66.4019C220.553 66.0551 220.992 65.8823 221.557 65.8823C222.571 65.8823 223.173 66.4019 223.365 67.441C224.981 66.2381 226.774 65.6364 228.746 65.6364C230.572 65.6364 231.485 66.8489 231.485 69.2733C231.485 69.7383 231.481 70.044 231.471 70.1898Z" fill="black"/>
<path d="M241.916 80.8553C240.227 80.8553 238.776 80.2767 237.562 79.1187C236.229 77.8516 235.531 76.1606 235.466 74.0457C235.403 72.031 235.955 70.2353 237.124 68.658C238.511 66.7981 240.442 65.8688 242.915 65.8688C244.742 65.8688 246.193 66.5977 247.27 68.0562C248.237 69.369 248.721 70.9964 248.721 72.9385C248.721 75.0534 248.156 76.858 247.023 78.3532C245.755 80.0217 244.052 80.8553 241.916 80.8553ZM242.738 69.4788C241.615 69.4691 240.729 69.9797 240.081 71.0099C239.534 71.8762 239.26 72.8877 239.26 74.0457C239.26 75.1401 239.57 75.9782 240.191 76.562C240.684 77.0263 241.258 77.2588 241.916 77.2588C242.71 77.2588 243.4 76.9903 243.984 76.4528C244.65 75.8234 245.006 74.9712 245.051 73.8954C245.17 70.9598 244.399 69.4878 242.738 69.4788Z" fill="black"/>
<path d="M265.314 70.1898C265.233 71.5847 264.598 72.2822 263.411 72.2822C262.261 72.2822 261.686 71.6894 261.686 70.5045L261.617 69.123C259.563 69.4512 258.094 70.5045 257.208 72.2822L257.222 79.1599C257.222 79.6794 257.044 80.1078 256.688 80.4456C256.332 80.7918 255.88 80.9646 255.333 80.9646C254.766 80.9646 254.328 80.7828 254.018 80.418C253.726 80.0898 253.58 79.6705 253.58 79.1599V70.2033C253.58 69.9207 253.589 69.5013 253.607 68.9451C253.625 68.38 253.634 67.9561 253.634 67.6735C253.634 67.1636 253.785 66.7391 254.086 66.4019C254.397 66.0551 254.835 65.8823 255.401 65.8823C256.414 65.8823 257.017 66.4019 257.208 67.441C258.824 66.2381 260.618 65.6364 262.59 65.6364C264.415 65.6364 265.328 66.8489 265.328 69.2733C265.328 69.7383 265.323 70.044 265.314 70.1898Z" fill="black"/>
<path d="M161.11 196.116C159.986 196.116 159.361 195.563 159.233 194.461C159.106 193.522 158.978 192.578 158.85 191.63C158.713 190.627 158.644 189.684 158.644 188.799C158.644 188.562 158.658 188.157 158.685 187.583C158.723 187.008 158.741 186.602 158.741 186.365C158.741 186.302 158.75 186.143 158.768 185.887C158.786 185.622 158.795 185.408 158.795 185.245C158.795 184.488 158.599 184.109 158.206 184.109C157.367 184.109 156.54 184.602 155.728 185.586C154.925 186.561 154.295 187.801 153.839 189.306C153.82 189.606 153.779 190.008 153.715 190.509C153.661 190.919 153.633 191.32 153.633 191.712C153.633 191.968 153.661 192.355 153.715 192.874C153.779 193.385 153.811 193.768 153.811 194.023C153.811 194.543 153.629 194.971 153.263 195.309C152.907 195.655 152.455 195.828 151.908 195.828C151.36 195.828 150.908 195.655 150.553 195.309C150.196 194.971 150.018 194.543 150.018 194.023C150.018 193.768 149.991 193.385 149.936 192.874C149.881 192.355 149.854 191.968 149.854 191.712C149.854 190.837 149.918 189.62 150.046 188.061C150.173 186.502 150.238 185.286 150.238 184.41C150.238 184.136 150.219 183.731 150.182 183.193C150.155 182.646 150.141 182.24 150.141 181.976C150.141 181.466 150.324 181.046 150.689 180.718C151.063 180.381 151.52 180.212 152.058 180.212C153.254 180.212 153.893 180.928 153.975 182.359L153.989 182.509C155.322 181.169 156.728 180.499 158.206 180.499C159.932 180.499 161.123 181.22 161.781 182.66C162.218 183.626 162.438 185.071 162.438 186.995V187.965C162.429 188.385 162.424 188.681 162.424 188.855C162.424 189.566 162.519 190.481 162.712 191.603C162.912 192.724 163.012 193.636 163.012 194.337C163.012 194.848 162.83 195.272 162.465 195.609C162.1 195.947 161.648 196.116 161.11 196.116Z" fill="black"/>
<path d="M173.444 195.951C171.755 195.951 170.304 195.373 169.09 194.215C167.757 192.948 167.059 191.257 166.994 189.142C166.931 187.127 167.483 185.331 168.652 183.754C170.039 181.894 171.969 180.964 174.444 180.964C176.269 180.964 177.721 181.694 178.798 183.152C179.765 184.465 180.249 186.092 180.249 188.034C180.249 190.149 179.683 191.954 178.552 193.449C177.283 195.117 175.58 195.951 173.444 195.951ZM174.266 184.574C173.143 184.565 172.257 185.076 171.609 186.106C171.061 186.972 170.787 187.984 170.787 189.142C170.787 190.235 171.098 191.074 171.719 191.657C172.212 192.122 172.787 192.355 173.444 192.355C174.238 192.355 174.927 192.086 175.512 191.548C176.178 190.919 176.534 190.067 176.579 188.991C176.698 186.056 175.927 184.583 174.266 184.574Z" fill="black"/>
<path d="M195.035 184.137C194.843 184.137 194.615 184.132 194.35 184.123C194.095 184.105 193.871 184.096 193.679 184.096C193.305 184.096 192.871 184.132 192.378 184.206C192.543 187.888 192.625 190.295 192.625 191.425C192.625 191.544 192.629 191.767 192.638 192.095C192.647 192.414 192.652 192.674 192.652 192.874C192.652 194.971 191.99 196.019 190.667 196.019C190.165 196.019 189.731 195.865 189.366 195.554C188.964 195.226 188.763 194.817 188.763 194.324C188.763 193.996 188.777 193.504 188.804 192.847C188.831 192.191 188.846 191.699 188.846 191.37C188.846 190.268 188.763 187.906 188.599 184.287C188.033 184.26 187.175 184.187 186.025 184.068C184.884 183.941 184.313 183.348 184.313 182.291C184.313 181.78 184.487 181.348 184.834 180.992C185.18 180.636 185.627 180.458 186.175 180.458C186.513 180.458 187.289 180.513 188.503 180.623C188.494 180.331 188.471 179.847 188.435 179.173C188.398 178.589 188.38 178.138 188.38 177.819C188.38 177.309 188.567 176.885 188.941 176.548C189.316 176.21 189.767 176.042 190.297 176.042C191.648 176.042 192.323 177.176 192.323 179.447L192.296 180.568C192.862 180.486 193.323 180.445 193.679 180.445C194.729 180.445 195.445 180.513 195.829 180.65C196.559 180.905 196.924 181.461 196.924 182.318C196.924 182.838 196.746 183.27 196.39 183.617C196.034 183.963 195.583 184.137 195.035 184.137Z" fill="black"/>
<path d="M222.866 181.101C224.09 180.992 224.966 180.937 225.496 180.937C227.203 180.937 228.056 181.52 228.056 182.687C228.056 183.891 227.148 184.465 225.331 184.41C224.756 184.392 223.885 184.433 222.717 184.534C222.679 185.5 222.67 186.731 222.689 188.225C222.725 190.377 222.744 191.603 222.744 191.903C222.744 193.572 222.638 194.894 222.429 195.869C222.218 196.845 221.616 197.332 220.621 197.332C220.11 197.332 219.662 197.168 219.279 196.84C218.905 196.512 218.718 196.097 218.718 195.596C218.718 195.477 218.727 195.363 218.745 195.254C218.964 193.95 219.074 192.724 219.074 191.575V184.739C218.91 184.748 218.609 184.784 218.17 184.848C217.823 184.893 217.558 184.916 217.376 184.916C216.819 184.916 216.358 184.757 215.993 184.437C215.628 184.109 215.445 183.672 215.445 183.125C215.445 182.277 215.893 181.721 216.787 181.457C217.189 181.338 217.988 181.261 219.184 181.224C219.193 181.06 219.252 180.545 219.362 179.679C219.617 177.646 220.169 176.133 221.018 175.139C222.077 173.9 223.702 173.279 225.893 173.279C227.563 173.279 228.398 173.876 228.398 175.071C228.398 176.256 227.622 176.848 226.071 176.848C224.966 176.848 224.163 177.236 223.661 178.011C223.287 178.585 223.036 179.483 222.908 180.705L222.866 181.101Z" fill="black"/>
<path d="M239.076 195.951C237.387 195.951 235.936 195.373 234.722 194.215C233.389 192.948 232.69 191.257 232.627 189.142C232.563 187.127 233.115 185.331 234.284 183.754C235.671 181.894 237.602 180.964 240.076 180.964C241.901 180.964 243.353 181.694 244.43 183.152C245.398 184.465 245.881 186.092 245.881 188.034C245.881 190.149 245.316 191.954 244.183 193.449C242.914 195.117 241.212 195.951 239.076 195.951ZM239.898 184.574C238.775 184.565 237.89 185.076 237.241 186.106C236.694 186.972 236.42 187.984 236.42 189.142C236.42 190.235 236.73 191.074 237.351 191.657C237.844 192.122 238.419 192.355 239.076 192.355C239.871 192.355 240.56 192.086 241.144 191.548C241.81 190.919 242.166 190.067 242.212 188.991C242.331 186.056 241.559 184.583 239.898 184.574Z" fill="black"/>
<path d="M262.995 187.241C262.995 187.851 262.999 188.772 263.008 190.003C263.018 191.233 263.022 192.154 263.022 192.765C263.022 192.957 263.036 193.244 263.064 193.626C263.1 194 263.118 194.283 263.118 194.475C263.118 194.985 262.931 195.404 262.556 195.732C262.191 196.069 261.74 196.238 261.201 196.238C260.443 196.238 259.891 195.897 259.544 195.213C258.376 195.641 257.166 195.856 255.916 195.856C254.62 195.856 253.528 195.582 252.643 195.035C251.648 194.406 251.054 193.49 250.863 192.287C250.507 190.007 250.329 187.97 250.329 186.174C250.329 184.989 250.466 183.635 250.74 182.113C250.922 181.082 251.538 180.568 252.588 180.568C253.118 180.568 253.57 180.737 253.944 181.073C254.318 181.401 254.505 181.822 254.505 182.332C254.505 182.733 254.436 183.362 254.3 184.219C254.172 185.076 254.108 185.728 254.108 186.174C254.108 187.459 254.149 188.586 254.231 189.552C254.323 190.509 254.455 191.302 254.629 191.931C254.857 192.031 255.076 192.109 255.286 192.163C255.505 192.218 255.715 192.246 255.916 192.246C256.929 192.246 258.042 192.099 259.257 191.808C259.257 191.106 259.252 190.309 259.243 189.415C259.224 188.349 259.215 187.583 259.215 187.117C259.215 185.248 259.302 183.635 259.476 182.277C259.613 181.192 260.233 180.65 261.338 180.65C261.876 180.65 262.337 180.818 262.721 181.156C263.104 181.493 263.282 181.917 263.255 182.427C263.082 185.901 262.995 187.505 262.995 187.241Z" fill="black"/>
<path d="M279.19 196.116C278.068 196.116 277.442 195.563 277.315 194.461C277.187 193.522 277.059 192.578 276.931 191.63C276.794 190.627 276.725 189.684 276.725 188.799C276.725 188.562 276.74 188.157 276.767 187.583C276.803 187.008 276.822 186.602 276.822 186.365C276.822 186.302 276.831 186.143 276.849 185.887C276.868 185.622 276.877 185.408 276.877 185.245C276.877 184.488 276.68 184.109 276.288 184.109C275.447 184.109 274.621 184.602 273.809 185.586C273.006 186.561 272.376 187.801 271.919 189.306C271.901 189.606 271.86 190.008 271.797 190.509C271.741 190.919 271.714 191.32 271.714 191.712C271.714 191.968 271.741 192.355 271.797 192.874C271.86 193.385 271.892 193.768 271.892 194.023C271.892 194.543 271.71 194.971 271.345 195.309C270.989 195.655 270.537 195.828 269.989 195.828C269.441 195.828 268.989 195.655 268.633 195.309C268.278 194.971 268.099 194.543 268.099 194.023C268.099 193.768 268.072 193.385 268.017 192.874C267.963 192.355 267.935 191.968 267.935 191.712C267.935 190.837 267.999 189.62 268.127 188.061C268.255 186.502 268.318 185.286 268.318 184.41C268.318 184.136 268.3 183.731 268.264 183.193C268.237 182.646 268.222 182.24 268.222 181.976C268.222 181.466 268.405 181.046 268.77 180.718C269.145 180.381 269.601 180.212 270.139 180.212C271.335 180.212 271.974 180.928 272.056 182.359L272.071 182.509C273.403 181.169 274.809 180.499 276.288 180.499C278.012 180.499 279.204 181.22 279.861 182.66C280.3 183.626 280.518 185.071 280.518 186.995V187.965C280.509 188.385 280.505 188.681 280.505 188.855C280.505 189.566 280.601 190.481 280.792 191.603C280.993 192.724 281.094 193.636 281.094 194.337C281.094 194.848 280.911 195.272 280.546 195.609C280.181 195.947 279.729 196.116 279.19 196.116Z" fill="black"/>
<path d="M295.907 181.402C296.025 178.293 296.167 176.146 296.331 174.961C296.486 173.885 297.08 173.348 298.112 173.348C298.65 173.348 299.084 173.521 299.412 173.867C299.741 174.214 299.905 174.638 299.905 175.139C299.905 176.461 299.8 178.43 299.59 181.046C299.39 183.663 299.289 185.632 299.289 186.954C299.289 190.181 299.394 192.341 299.604 193.435C299.631 193.581 299.645 193.713 299.645 193.832C299.645 194.334 299.463 194.748 299.097 195.076C298.732 195.395 298.308 195.554 297.824 195.554C297.148 195.554 296.646 195.254 296.318 194.652C295.697 195.026 295.053 195.304 294.387 195.486C293.72 195.678 293.032 195.773 292.319 195.773C290.274 195.773 288.577 195.122 287.226 193.818C285.847 192.487 285.158 190.792 285.158 188.731C285.158 186.279 285.852 184.301 287.24 182.796C288.627 181.283 290.439 180.527 292.676 180.527C293.36 180.527 293.972 180.599 294.51 180.745C295.049 180.892 295.514 181.11 295.907 181.402ZM295.633 185.709C295.332 185.135 294.939 184.706 294.456 184.424C293.972 184.141 293.397 184 292.73 184C291.379 184 290.366 184.392 289.691 185.176C289.015 185.95 288.677 187.117 288.677 188.677C288.677 189.661 289.042 190.505 289.772 191.207C290.503 191.908 291.352 192.259 292.319 192.259C293.022 192.259 293.556 192.178 293.921 192.013C294.168 191.903 294.588 191.612 295.181 191.138C295.336 191.011 295.487 190.869 295.633 190.714C295.615 190.277 295.615 188.608 295.633 185.709Z" fill="black"/>
<path d="M136.323 328.688C126.409 313.201 152.563 280.047 152.563 280.047C152.563 280.047 179.068 314.15 169.794 328.688C165.102 336.041 159.935 338.886 152.563 338.671C145.542 338.467 140.801 335.681 136.323 328.688Z" fill="#92C3FF"/>
<path d="M42.1171 325.187C32.2031 309.701 58.3573 276.547 58.3573 276.547C58.3573 276.547 84.8624 310.649 75.5872 325.187C70.8957 332.54 65.729 335.385 58.3573 335.17C51.336 334.966 46.5946 332.181 42.1171 325.187Z" fill="#92C3FF"/>
<path d="M362.857 316.436C352.943 300.949 379.097 267.795 379.097 267.795C379.097 267.795 405.602 301.898 396.327 316.436C391.636 323.789 386.469 326.634 379.097 326.419C372.076 326.215 367.334 323.429 362.857 316.436Z" fill="#92C3FF"/>
<path d="M43.4592 168.028L44.4978 167.224L43.4669 165.897L42.4267 167.216L43.4592 168.028ZM43.4592 168.028C44.4978 167.224 44.4978 167.224 44.4983 167.224L44.4996 167.226L44.5035 167.231L44.5193 167.251C44.5329 167.269 44.5526 167.295 44.5784 167.328C44.6297 167.395 44.7055 167.494 44.8032 167.623C44.9982 167.881 45.2822 168.259 45.6393 168.745C46.3539 169.717 47.3617 171.118 48.5413 172.844C50.8986 176.294 53.9509 181.055 56.7149 186.284C59.4727 191.502 61.9755 197.244 63.1923 202.647C64.4014 208.016 64.3969 213.301 61.7981 217.374C59.3785 221.166 56.7736 223.896 53.7336 225.637C50.6808 227.386 47.2946 228.077 43.4209 227.964C39.7358 227.857 36.5601 227.068 33.7012 225.327C30.8545 223.595 28.4186 220.979 26.1118 217.376C23.3702 213.093 23.1971 207.715 24.2852 202.278C25.3771 196.822 27.7775 191.102 30.4541 185.938C33.1362 180.762 36.1268 176.087 38.4429 172.71C39.6021 171.019 40.5948 169.649 41.299 168.701C41.6512 168.227 41.9313 167.858 42.1243 167.606C42.2208 167.48 42.2955 167.384 42.3466 167.319C42.3721 167.286 42.3916 167.261 42.4051 167.243L42.4206 167.224L42.4248 167.218L42.426 167.216C42.4264 167.216 42.4267 167.216 43.4592 168.028Z" fill="#92C3FF"/>
<path d="M43.4592 168.028L44.4978 167.224L43.4669 165.897L42.4267 167.216L43.4592 168.028ZM43.4592 168.028C44.4978 167.224 44.4978 167.224 44.4983 167.224L44.4996 167.226L44.5035 167.231L44.5193 167.251C44.5329 167.269 44.5526 167.295 44.5784 167.328C44.6297 167.395 44.7055 167.494 44.8032 167.623C44.9982 167.881 45.2822 168.259 45.6393 168.745C46.3539 169.717 47.3617 171.118 48.5413 172.844C50.8986 176.294 53.9509 181.055 56.7149 186.284C59.4727 191.502 61.9755 197.244 63.1923 202.647C64.4014 208.016 64.3969 213.301 61.7981 217.374C59.3785 221.166 56.7736 223.896 53.7336 225.637C50.6808 227.386 47.2946 228.077 43.4209 227.964C39.7358 227.857 36.5601 227.068 33.7012 225.327C30.8545 223.595 28.4186 220.979 26.1118 217.376C23.3702 213.093 23.1971 207.715 24.2852 202.278C25.3771 196.822 27.7775 191.102 30.4541 185.938C33.1362 180.762 36.1268 176.087 38.4429 172.71C39.6021 171.019 40.5948 169.649 41.299 168.701C41.6512 168.227 41.9313 167.858 42.1243 167.606C42.2208 167.48 42.2955 167.384 42.3466 167.319C42.3721 167.286 42.3916 167.261 42.4051 167.243L42.4206 167.224L42.4248 167.218L42.426 167.216C42.4264 167.216 42.4267 167.216 43.4592 168.028Z" stroke="white" stroke-width="6"/>
<path d="M394.433 158.839L395.472 158.034L394.44 156.708L393.4 158.027L394.433 158.839ZM394.433 158.839C395.472 158.034 395.472 158.034 395.472 158.035L395.474 158.037L395.477 158.042L395.493 158.062C395.507 158.08 395.526 158.106 395.552 158.139C395.603 158.207 395.679 158.305 395.777 158.435C395.972 158.692 396.256 159.07 396.613 159.556C397.327 160.528 398.336 161.929 399.515 163.655C401.873 167.105 404.925 171.866 407.688 177.095C410.446 182.313 412.95 188.056 414.166 193.458C415.376 198.827 415.371 204.112 412.771 208.185C410.352 211.977 407.748 214.706 404.707 216.448C401.655 218.197 398.269 218.888 394.395 218.776C390.709 218.668 387.534 217.878 384.675 216.138C381.828 214.406 379.392 211.79 377.086 208.187C374.344 203.904 374.171 198.526 375.259 193.089C376.35 187.632 378.751 181.913 381.428 176.749C384.11 171.574 387.1 166.898 389.416 163.52C390.576 161.829 391.568 160.46 392.273 159.512C392.625 159.038 392.905 158.669 393.098 158.417C393.195 158.291 393.269 158.195 393.32 158.13C393.346 158.097 393.366 158.072 393.379 158.054L393.395 158.034L393.398 158.029L393.4 158.028C393.4 158.027 393.4 158.027 394.433 158.839Z" fill="#92C3FF"/>
<path d="M394.433 158.839L395.472 158.034L394.44 156.708L393.4 158.027L394.433 158.839ZM394.433 158.839C395.472 158.034 395.472 158.034 395.472 158.035L395.474 158.037L395.477 158.042L395.493 158.062C395.507 158.08 395.526 158.106 395.552 158.139C395.603 158.207 395.679 158.305 395.777 158.435C395.972 158.692 396.256 159.07 396.613 159.556C397.327 160.528 398.336 161.929 399.515 163.655C401.873 167.105 404.925 171.866 407.688 177.095C410.446 182.313 412.95 188.056 414.166 193.458C415.376 198.827 415.371 204.112 412.771 208.185C410.352 211.977 407.748 214.706 404.707 216.448C401.655 218.197 398.269 218.888 394.395 218.776C390.709 218.668 387.534 217.878 384.675 216.138C381.828 214.406 379.392 211.79 377.086 208.187C374.344 203.904 374.171 198.526 375.259 193.089C376.35 187.632 378.751 181.913 381.428 176.749C384.11 171.574 387.1 166.898 389.416 163.52C390.576 161.829 391.568 160.46 392.273 159.512C392.625 159.038 392.905 158.669 393.098 158.417C393.195 158.291 393.269 158.195 393.32 158.13C393.346 158.097 393.366 158.072 393.379 158.054L393.395 158.034L393.398 158.029L393.4 158.028C393.4 158.027 393.4 158.027 394.433 158.839Z" stroke="white" stroke-width="6"/>
<path d="M244.551 358.005C234.637 342.519 260.792 309.365 260.792 309.365C260.792 309.365 287.296 343.467 278.022 358.005C273.33 365.359 268.163 368.204 260.792 367.988C253.77 367.784 249.029 364.999 244.551 358.005Z" fill="#92C3FF"/>
<path d="M111.814 206.535L112.852 205.731L111.821 204.404L110.781 205.722L111.814 206.535ZM111.814 206.535C112.852 205.731 112.852 205.731 112.852 205.731L112.854 205.733L112.858 205.738L112.873 205.758C112.888 205.776 112.907 205.801 112.933 205.835C112.984 205.902 113.06 206.001 113.158 206.13C113.352 206.388 113.636 206.766 113.994 207.252C114.708 208.223 115.716 209.625 116.896 211.351C119.253 214.8 122.305 219.562 125.069 224.791C127.827 230.009 130.33 235.751 131.546 241.154C132.756 246.522 132.751 251.807 130.152 255.88C127.733 259.672 125.128 262.403 122.088 264.144C119.035 265.893 115.649 266.584 111.775 266.471C108.09 266.364 104.914 265.574 102.055 263.834C99.2088 262.101 96.773 259.486 94.4665 255.882C91.7247 251.6 91.5518 246.222 92.6395 240.784C93.731 235.328 96.1315 229.608 98.8083 224.444C101.49 219.27 104.481 214.593 106.797 211.216C107.957 209.525 108.949 208.156 109.653 207.208C110.006 206.734 110.286 206.365 110.479 206.113C110.575 205.988 110.65 205.891 110.701 205.825C110.727 205.792 110.746 205.767 110.76 205.75L110.775 205.731L110.779 205.725L110.78 205.724C110.781 205.723 110.781 205.722 111.814 206.535Z" fill="#92C3FF"/>
<path d="M111.814 206.535L112.852 205.731M111.814 206.535L110.781 205.722L111.821 204.404L112.852 205.731M111.814 206.535C112.852 205.731 112.852 205.731 112.852 205.731M111.814 206.535C110.781 205.722 110.781 205.723 110.78 205.724L110.779 205.725L110.775 205.731L110.76 205.75C110.746 205.767 110.727 205.792 110.701 205.825C110.65 205.891 110.575 205.988 110.479 206.113C110.286 206.365 110.006 206.734 109.653 207.208C108.949 208.156 107.957 209.525 106.797 211.216C104.481 214.593 101.49 219.27 98.8083 224.444C96.1315 229.608 93.731 235.328 92.6395 240.784C91.5518 246.222 91.7247 251.6 94.4665 255.882C96.773 259.486 99.2088 262.101 102.055 263.834C104.914 265.574 108.09 266.364 111.775 266.471C115.649 266.584 119.035 265.893 122.088 264.144C125.128 262.403 127.733 259.672 130.152 255.88C132.751 251.807 132.756 246.522 131.546 241.154C130.33 235.751 127.827 230.009 125.069 224.791C122.305 219.562 119.253 214.8 116.896 211.351C115.716 209.625 114.708 208.223 113.994 207.252C113.636 206.766 113.352 206.388 113.158 206.13C113.06 206.001 112.984 205.902 112.933 205.835C112.907 205.801 112.888 205.776 112.873 205.758L112.858 205.738L112.854 205.733L112.852 205.731" stroke="white" stroke-width="6"/>
<path d="M292.34 227.538L293.378 226.734L292.347 225.407L291.307 226.726L292.34 227.538ZM292.34 227.538C293.378 226.734 293.378 226.734 293.379 226.734L293.38 226.736L293.384 226.741L293.399 226.761C293.413 226.779 293.433 226.805 293.458 226.838C293.51 226.906 293.586 227.005 293.683 227.134C293.878 227.391 294.162 227.769 294.519 228.255C295.234 229.227 296.242 230.628 297.422 232.354C299.779 235.804 302.831 240.565 305.595 245.794C308.353 251.012 310.855 256.755 312.072 262.157C313.282 267.526 313.277 272.811 310.678 276.884C308.259 280.676 305.654 283.406 302.614 285.147C299.561 286.896 296.175 287.587 292.301 287.475C288.616 287.368 285.44 286.578 282.581 284.837C279.735 283.105 277.299 280.489 274.992 276.886C272.251 272.603 272.077 267.225 273.165 261.788C274.257 256.332 276.657 250.612 279.334 245.448C282.016 240.273 285.007 235.597 287.323 232.22C288.482 230.529 289.475 229.159 290.179 228.211C290.532 227.737 290.812 227.368 291.005 227.116C291.101 226.99 291.176 226.894 291.226 226.829C291.252 226.796 291.271 226.771 291.286 226.753L291.3 226.734L291.305 226.728L291.306 226.727C291.307 226.726 291.307 226.726 292.34 227.538Z" fill="#92C3FF"/>
<path d="M292.34 227.538L293.378 226.734L292.347 225.407L291.307 226.726L292.34 227.538ZM292.34 227.538C293.378 226.734 293.378 226.734 293.379 226.734L293.38 226.736L293.384 226.741L293.399 226.761C293.413 226.779 293.433 226.805 293.458 226.838C293.51 226.906 293.586 227.005 293.683 227.134C293.878 227.391 294.162 227.769 294.519 228.255C295.234 229.227 296.242 230.628 297.422 232.354C299.779 235.804 302.831 240.565 305.595 245.794C308.353 251.012 310.855 256.755 312.072 262.157C313.282 267.526 313.277 272.811 310.678 276.884C308.259 280.676 305.654 283.406 302.614 285.147C299.561 286.896 296.175 287.587 292.301 287.475C288.616 287.368 285.44 286.578 282.581 284.837C279.735 283.105 277.299 280.489 274.992 276.886C272.251 272.603 272.077 267.225 273.165 261.788C274.257 256.332 276.657 250.612 279.334 245.448C282.016 240.273 285.007 235.597 287.323 232.22C288.482 230.529 289.475 229.159 290.179 228.211C290.532 227.737 290.812 227.368 291.005 227.116C291.101 226.99 291.176 226.894 291.226 226.829C291.252 226.796 291.271 226.771 291.286 226.753L291.3 226.734L291.305 226.728L291.306 226.727C291.307 226.726 291.307 226.726 292.34 227.538Z" stroke="white" stroke-width="6"/>
</g>
</g>
<defs>
<clipPath id="clip0_49_2">
<rect width="450" height="368" fill="white"/>
</clipPath>
</defs>
</svg>
